<svg width="43" height="50" viewBox="0 0 43 50" fill="none" xmlns="http://www.w3.org/2000/svg">
    <path d="M32.25 0.749298H40.6111C41.925 0.749298 43 1.97437 43 3.47168C43 29.0348 24.8206 49.7522 2.38889 49.7522C1.075 49.7522 0 48.5271 0 47.0298V37.5287C0 36.0314 1.075 34.8063 2.38889 34.8063C5.35111 34.8063 8.24166 34.2618 10.9172 33.2545C11.1561 33.1456 11.4189 33.1184 11.6578 33.1184C12.2789 33.1184 12.8761 33.3906 13.3539 33.9079L18.6094 39.8971C25.37 35.9497 30.9122 29.661 34.3522 21.9566L29.0967 15.9674C28.4278 15.2051 28.2367 14.1434 28.4994 13.1906C29.3833 10.1415 29.8611 6.87465 29.8611 3.47168C29.8611 1.97437 30.9361 0.749298 32.25 0.749298Z" fill="#79675F" />
</svg>