<svg width="49" height="46" viewBox="0 0 49 46" fill="none" xmlns="http://www.w3.org/2000/svg">
<path fill-rule="evenodd" clip-rule="evenodd" d="M22.1741 0.0558806C14.5073 0.804312 7.7881 4.72129 3.70637 10.8218C-2.08087 19.4714 -1.00076 30.8953 6.31594 38.4207C10.3652 42.5855 15.4293 45.0753 21.5022 45.8874C22.636 46.039 26.4038 46.0371 27.5875 45.8844C33.1339 45.1684 38.1012 42.8591 41.879 39.2401C43.1189 38.0524 43.383 37.7684 44.2054 36.7387C46.6561 33.6702 48.2606 29.9295 48.8798 25.8412C49.0401 24.782 49.0401 21.2285 48.8797 20.1699C48.4666 17.4445 47.7157 15.1224 46.5109 12.845C45.2344 10.4321 43.9244 8.7119 41.8854 6.77096C38.1031 3.17041 33.3673 0.933761 27.9229 0.176508C26.7473 0.0129408 23.3449 -0.0583555 22.1741 0.0558806ZM30.3022 9.86272C33.0567 10.0302 34.6675 10.597 36.1407 11.917C37.6374 13.2582 38.328 14.9057 38.512 17.5748C38.6333 19.3335 38.6331 26.6311 38.5118 28.4178C38.3289 31.1123 37.6236 32.7785 36.089 34.1419C34.6605 35.4111 33.0089 35.9837 30.3022 36.1484C28.4634 36.2603 20.5784 36.2603 18.7396 36.1484C15.985 35.9808 14.3743 35.4141 12.9011 34.0941C11.4043 32.7529 10.7137 31.1054 10.5297 28.4363C10.4094 26.6907 10.41 19.1841 10.5308 17.5234C10.7223 14.8873 11.4153 13.2483 12.9011 11.917C14.3145 10.6506 16.0136 10.0261 18.4714 9.86956C20.0914 9.7664 28.6378 9.76145 30.3022 9.86272ZM21.023 12.2132C18.1442 12.2619 17.6795 12.2899 17.0322 12.4546C14.9937 12.9732 13.8365 14.0608 13.2906 15.971C13.117 16.5787 13.087 17.0296 13.0336 19.8323C13.0004 21.5776 13.0004 24.4335 13.0336 26.1788C13.087 28.9815 13.117 29.4324 13.2906 30.0401C13.8367 31.951 14.998 33.0419 17.0322 33.5549C17.6792 33.718 18.1592 33.7462 21.1428 33.7963C23.0008 33.8275 26.041 33.8275 27.8989 33.7963C30.907 33.7458 31.359 33.7189 32.0258 33.5509C34.0104 33.051 35.2123 31.9224 35.7479 30.0554C35.9283 29.4269 35.9561 29.0141 36.0092 26.1788C36.0418 24.4335 36.0418 21.5775 36.0092 19.8323C35.9566 17.0197 35.9273 16.5809 35.7522 15.971C35.2022 14.0566 34.0367 12.9628 32.0095 12.4587C31.2623 12.273 31.0644 12.2643 25.6708 12.1798C24.9066 12.1679 22.8151 12.1828 21.023 12.2132ZM32.6363 14.4593C33.0034 14.5896 33.4291 14.978 33.5887 15.3284C34.0517 16.345 33.2252 17.5143 32.0436 17.5143C31.1406 17.5143 30.3666 16.7912 30.3666 15.9477C30.3666 14.8576 31.5577 14.0765 32.6363 14.4593ZM26.8458 16.5867C28.0047 16.9686 28.6482 17.3489 29.5577 18.1894C30.4395 19.0042 30.9906 19.8165 31.3902 20.8901C31.6392 21.5591 31.6583 21.7093 31.6583 23.0055C31.6583 24.3017 31.6392 24.452 31.3902 25.121C31.0039 26.1588 30.4381 27.0042 29.6079 27.7841C28.7776 28.564 27.8776 29.0955 26.7729 29.4584C26.0607 29.6923 25.9007 29.7102 24.5209 29.7102C23.141 29.7102 22.9811 29.6923 22.2688 29.4584C21.126 29.083 20.2613 28.5653 19.3939 27.737C18.5035 26.8869 18.0992 26.2853 17.6819 25.1895C17.3934 24.4323 17.3815 24.3452 17.3846 23.0055C17.3875 21.7336 17.4106 21.5465 17.6458 20.8901C18.1452 19.4952 19.2111 18.1817 20.4927 17.3812C21.8974 16.5041 22.9005 16.2427 24.7125 16.2821C25.8668 16.3071 26.0968 16.34 26.8458 16.5867ZM23.3906 18.7347C20.8711 19.3717 19.3367 21.7463 19.9697 24.029C20.4279 25.6818 21.6744 26.8509 23.4383 27.2825C26.7319 28.0884 29.9318 25.0825 29.0739 21.9886C28.4061 19.5804 25.8451 18.1141 23.3906 18.7347Z" fill="#79675F"/>
</svg>
