<svg width="28" height="28" viewBox="0 0 28 28" fill="none" xmlns="http://www.w3.org/2000/svg">
<path fill-rule="evenodd" clip-rule="evenodd" d="M1.59325 9.33333L1.55556 9.22598C0.716166 6.81981 0 3.53111 0 1.55556C0 0.7 0.7 0 1.55556 0H6.22222C7.94044 0 9.33333 1.39289 9.33333 3.11111V6.22222C9.33333 7.94044 7.94044 9.33333 6.22222 9.33333H4.92028C7.44577 15.5724 12.4276 20.5542 18.6667 23.0797V21.7778C18.6667 20.0596 20.0596 18.6667 21.7778 18.6667H24.8889C26.6071 18.6667 28 20.0596 28 21.7778V26.4444C28 27.1444 27.1444 28 26.4444 28C23.7604 28 21.0943 27.2913 18.6667 26.4444C10.7108 23.5948 4.40525 17.2892 1.59325 9.33333Z" fill="#BAD8D8"/>
</svg>
