<svg width="60" height="61" viewBox="0 0 60 61" fill="none" xmlns="http://www.w3.org/2000/svg">
<path fill-rule="evenodd" clip-rule="evenodd" d="M41.0636 0.495121C39.7436 1.92575 35.7701 7.23231 35.6347 7.74512C35.47 8.36967 36.2264 9.0608 36.8254 8.83281C36.9904 8.77003 37.3346 8.43447 37.5902 8.08712C40.1763 4.57236 41.7406 2.57162 41.9026 2.57162C42.0357 2.57162 43.6679 4.61679 45.1348 6.6217C48.1949 10.8041 50.1528 14.1952 51.0275 16.8275C51.4707 18.1612 51.4959 20.0674 51.0892 21.5036C49.7278 26.3125 44.9684 29.3415 40.2062 28.4297C35.912 27.6077 32.7177 23.987 32.4213 19.6058C32.339 18.3903 32.5571 17.2974 33.2053 15.6777C33.4065 15.1749 33.5712 14.616 33.5712 14.4359C33.5712 13.7833 32.64 13.3396 32.1094 13.7391C31.8362 13.9448 31.2518 15.2811 30.8869 16.5344C29.7049 20.5939 31.4157 25.429 34.9969 28.1503C35.9935 28.9075 37.8897 29.829 39.1068 30.1474C44.1946 31.4786 49.67 28.9658 52.0836 24.1919C52.8177 22.74 53.3329 20.6437 53.3329 19.1087C53.3329 16.5844 51.8411 13.1208 48.7493 8.4664C47.0042 5.83944 43.6154 1.37327 42.5366 0.27856C42.1081 -0.156109 41.5949 -0.0807056 41.0636 0.495121ZM33.8093 10.4931C33.2747 11.028 33.6579 12.0417 34.3947 12.0417C34.9214 12.0417 35.1304 11.9222 35.2969 11.526C35.4765 11.0987 35.3338 10.5528 34.9951 10.3715C34.6357 10.179 34.0646 10.2376 33.8093 10.4931ZM48.1544 18.1352C47.7674 18.347 47.6187 18.611 47.6187 19.0867C47.6187 20.585 46.9584 22.0206 45.6956 23.2682C45.1619 23.7954 44.7616 24.2909 44.7616 24.4241C44.7616 24.8343 45.0206 25.2437 45.3723 25.3895C45.8752 25.598 46.3181 25.367 47.2808 24.3941C48.5844 23.0768 49.5231 20.8924 49.5176 19.1889C49.5157 18.6153 49.3804 18.3572 48.9658 18.1362C48.647 17.9663 48.4633 17.9661 48.1544 18.1352ZM41.2443 25.0799C40.6537 25.6708 41.0722 26.6934 41.9044 26.6934C42.3938 26.6934 42.8568 26.2302 42.8568 25.7405C42.8568 25.2508 42.3938 24.7875 41.9044 24.7875C41.6725 24.7875 41.4285 24.8955 41.2443 25.0799ZM9.76183 29.2788C7.39149 29.5391 5.35829 29.9966 2.41546 30.932C0.241665 31.6229 0 31.774 0 32.4431C0 32.8465 0.474163 33.3641 0.843565 33.3641C0.986182 33.3641 1.99308 33.0748 3.08117 32.721C5.42424 31.9594 7.25113 31.5351 9.28564 31.28C10.9785 31.0679 11.25 30.9665 11.4181 30.4837C11.565 30.0621 11.4272 29.6483 11.0524 29.3857C10.7867 29.1995 10.6147 29.1852 9.76183 29.2788ZM13.7111 29.4706C12.9122 30.3217 13.998 31.5831 14.911 30.8645C15.3051 30.5542 15.4075 30.1146 15.1854 29.6849C14.8907 29.1147 14.1469 29.0065 13.7111 29.4706ZM17.7805 29.7925C17.4489 29.9225 17.1427 30.3659 17.1427 30.7159C17.1427 31.1985 17.6076 31.5081 18.8689 31.8653C21.2296 32.5335 22.9316 33.4131 25.1665 35.1199C29.0911 38.1168 29.1087 38.1289 29.5551 38.1289C30.2874 38.1289 30.7131 37.3295 30.2971 36.7352C30.1987 36.5947 29.2848 35.8458 28.2661 35.0709C27.2474 34.2959 26.0909 33.4147 25.6959 33.1123C24.0686 31.8667 21.7271 30.7061 19.6427 30.1119C18.217 29.7056 18.0675 29.6799 17.7805 29.7925ZM44.8211 33.2069C43.9791 33.3957 43.3201 33.7126 42.5198 34.3135C41.5692 35.0274 36.2634 38.8322 35.9532 39.0226C35.8555 39.0824 34.6234 39.3255 33.2151 39.5627L30.6545 39.9939L29.1287 39.2353C23.5376 36.4553 18.4191 34.5818 15.8143 34.3617C14.943 34.288 14.8887 34.2984 14.5941 34.5932C14.1996 34.9879 14.1848 35.5374 14.5582 35.9111C14.7743 36.1273 15.0151 36.1996 15.7189 36.2597C18.0064 36.455 23.1443 38.3855 28.3926 41.0217L30.2974 41.9784L33.4247 41.4654L36.552 40.9522L39.7937 38.6359C41.5766 37.3619 43.3067 36.1114 43.6383 35.8569C44.3199 35.3339 45.0694 35.0318 45.6854 35.0318C46.1365 35.0318 47.0234 35.2624 47.0234 35.3798C47.0234 35.5936 43.2389 39.1462 40.6544 41.3587L37.6783 43.9063L33.3383 44.8765C28.6408 45.9267 28.5712 45.9536 28.5712 46.7242C28.5712 47.1487 29.0419 47.6599 29.4289 47.6555C29.5792 47.6538 31.6903 47.2084 34.1204 46.6658L38.5389 45.6791L42.1561 42.5703C44.1456 40.8605 46.6171 38.6085 47.6484 37.5659C49.3101 35.8858 49.5234 35.6253 49.5234 35.2758C49.5234 34.5897 48.3176 33.6623 46.9687 33.3108C46.2964 33.1357 45.3444 33.0896 44.8211 33.2069ZM51.1815 36.9435C50.1498 37.1883 49.4009 37.5519 49.2241 37.894C48.9696 38.3865 49.002 38.5785 49.4082 38.9849C49.8153 39.3923 49.9448 39.3904 51.1305 38.9593C52.2122 38.566 53.5091 38.6594 54.5975 39.2089C55.0431 39.4339 55.4224 39.6716 55.4403 39.7371C55.4583 39.8026 52.4334 41.4718 48.7184 43.4465C43.3218 46.3149 40.9803 47.4824 37.0709 49.2536L32.178 51.4704H29.5379H26.8978L16.8913 46.7056L6.88483 41.9408H3.73461H0.5844L0.29226 42.2332C-0.0944038 42.62 -0.0944038 43.1675 0.29226 43.5543L0.5844 43.8467H3.51747H6.45066L16.4521 48.6115L26.4537 53.3763H27.9142H29.3746L41.2796 57.1882C47.8272 59.2847 53.2922 61 53.424 61C53.8179 61 54.1537 60.6239 54.4052 59.9011C54.8779 58.5423 54.608 56.8097 53.7392 55.6254C53.0042 54.6236 52.343 54.2398 50.0954 53.5104C48.4616 52.9801 48.1828 52.9806 47.8093 53.5144C47.2674 54.2884 47.7143 54.7386 49.6732 55.3917C51.383 55.9619 51.8085 56.2089 52.309 56.9213C52.5826 57.3108 52.6749 57.5917 52.7159 58.1592C52.7646 58.8319 52.7508 58.8863 52.5517 58.8099C52.3674 58.7392 35.0297 53.167 34.1664 52.901C33.8881 52.8153 33.9113 52.7899 34.5235 52.5097C34.8837 52.3449 37.003 51.3796 39.2334 50.3646C42.2484 48.9926 45.1338 47.5354 50.4833 44.6832C54.4404 42.5733 57.7719 40.7388 57.8864 40.6064C58.3192 40.1068 58.1689 39.6988 57.2034 38.7514C56.2404 37.8063 55.151 37.203 53.9521 36.9512C53.2287 36.7992 51.8061 36.7953 51.1815 36.9435ZM52.6611 44.7987C52.3363 44.9299 52.0234 45.3737 52.0234 45.7036C52.0234 45.8439 52.1342 46.0997 52.2697 46.272C52.5073 46.5743 52.5561 46.5847 53.6685 46.5676C55.0807 46.5461 55.9219 46.7691 56.7661 47.3887C57.102 47.6354 57.3776 47.8738 57.3787 47.9186C57.3812 48.0334 57.6893 47.9565 49.6428 49.8519C41.7382 51.714 41.9044 51.6584 41.9044 52.4419C41.9044 52.8666 42.3754 53.3777 42.7622 53.3729C42.9124 53.371 46.7565 52.4917 51.3046 51.4189C60.2171 49.3167 59.9995 49.3869 59.9995 48.6168C59.9995 48.4376 59.7949 47.9746 59.5448 47.5877C58.7137 46.3021 57.3922 45.3333 55.841 44.8726C55.143 44.6653 53.1086 44.618 52.6611 44.7987Z" fill="#BAD8D8"/>
</svg>
