<svg width="59" height="54" viewBox="0 0 59 54" fill="none" xmlns="http://www.w3.org/2000/svg">
<path fill-rule="evenodd" clip-rule="evenodd" d="M29.1299 0.0826086C28.4897 0.364522 26.5977 2.86412 25.7458 4.55319C23.6081 8.79202 24.5971 12.3297 28.2612 13.5511C28.4197 13.6039 28.4629 13.7499 28.4629 14.2328V14.8474L22.404 15.7784C16.9659 16.6139 16.3164 16.7361 16.0661 16.971L15.7871 17.2327V22.8509C15.7871 25.9409 15.7559 28.4691 15.7176 28.4691C15.6794 28.4691 15.3813 28.2279 15.055 27.933C14.2169 27.1755 13.1568 26.513 12.7828 26.513C12.0141 26.513 9.73154 28.4717 8.7184 30.0005C7.91176 31.2178 7.0293 33.5022 7.0293 34.3726C7.0293 34.5472 6.97398 34.5793 6.77002 34.5231C6.24328 34.3782 4.8532 34.3093 4.09289 34.3906C3.09162 34.4977 2.90011 34.6857 2.50486 35.9497C1.57353 38.9278 1.90033 41.9829 3.43353 44.6302C4.02479 45.6512 4.98908 46.8086 5.76518 47.4286L6.44667 47.9729L3.22334 48.0036L0 48.034V49.0679V50.1017L1.18115 50.1019L2.3623 50.102L3.28418 51.9142C3.93975 53.2027 4.28925 53.7675 4.49414 53.869C4.72058 53.9812 8.83236 54.0058 23.7002 53.984L42.6182 53.9564L42.9156 53.6775C43.2084 53.4027 43.2129 53.3734 43.2129 51.7501V50.1017H46.3811H49.5493L50.4012 51.7989C50.8697 52.7323 51.3679 53.5997 51.5084 53.7263C51.7407 53.9356 51.9545 53.9596 53.8708 53.9922C56.2205 54.032 56.7157 53.9327 56.9265 53.3791C56.9895 53.2138 57.041 52.4087 57.041 51.5901V50.1017H57.5056C58.1544 50.1017 58.7478 49.8287 58.8855 49.4669C58.9485 49.3015 59 48.1886 59 46.9938C59 44.9037 58.9901 44.81 58.7395 44.519C58.5272 44.2726 58.3474 44.2045 57.7711 44.1524L57.0636 44.0883L57.5868 43.3841C59.2088 41.2009 59.4299 38.5097 58.1891 36.055C57.835 35.3547 56.529 33.9075 55.8983 33.5168L55.6201 33.3443L56.0319 33.0901C56.712 32.6703 57.795 31.4192 58.2305 30.55C59.3493 28.3168 59.2043 25.7731 57.839 23.6805C57.0234 22.4305 55.8099 21.5038 54.2178 20.9151C53.6984 20.7231 53.1305 20.6965 48.4561 20.6446L43.2705 20.5871L43.2425 17.02C43.2236 14.6059 43.1716 13.371 43.082 13.1995C42.799 12.6585 42.6409 12.6678 36.7353 13.5717C33.6749 14.0401 31.0282 14.4497 30.854 14.4818C30.5513 14.5376 30.5371 14.5197 30.5371 14.0793C30.5371 13.7425 30.5915 13.6002 30.7388 13.5511C31.5687 13.2744 32.4575 12.7545 32.9626 12.2502C35.0974 10.1184 34.8102 6.6749 32.1697 2.74468C31.4881 1.73014 30.308 0.291236 30.0407 0.148668C29.7152 -0.0247376 29.4219 -0.0460361 29.1299 0.0826086ZM30.1908 3.32485C32.7963 6.8628 33.127 10.1155 31.0024 11.3078L30.5371 11.569V10.6987V9.82831H29.5H28.4629V10.6987V11.569L27.9976 11.3078C27.076 10.7907 26.5865 9.84626 26.6005 8.61217C26.6173 7.12827 27.4156 5.21712 28.8092 3.32485C29.1574 2.85192 29.4683 2.46508 29.5 2.46508C29.5317 2.46508 29.8426 2.85192 30.1908 3.32485ZM41.2539 17.7679V20.6446H39.2827C37.8582 20.6446 37.1153 20.6952 36.6035 20.827C33.6587 21.5856 31.463 24.4076 31.463 27.4335C31.463 28.9287 32.137 30.7753 33.0684 31.8318C33.3241 32.1219 33.5332 32.39 33.5332 32.4278C33.5332 32.4656 33.4166 32.497 33.2739 32.4977C32.5573 32.5012 30.9104 33.2408 30.07 33.9369C28.1409 35.5341 27.1876 38.1204 27.6657 40.4592C27.9165 41.686 28.3838 42.6604 29.2617 43.786L29.4962 44.0866L28.7792 44.1515C28.1933 44.2045 28.0145 44.2717 27.8016 44.519C27.5502 44.8108 27.541 44.9009 27.541 47.0664C27.541 48.4545 27.5885 49.4 27.6655 49.5436C27.8283 49.8474 28.4525 50.1017 29.0354 50.1017H29.5V51.0798V52.0578H25.8709H22.242L22.7258 51.0835L23.2097 50.1092L24.3671 50.0767L25.5244 50.0441V49.0661V48.088L22.3249 48.0305L19.1254 47.9729L19.7757 47.4551C20.1334 47.1704 20.7562 46.5253 21.1599 46.0216C23.455 43.1579 24.1622 39.4868 23.0863 36.0212C22.6877 34.7375 22.4694 34.4977 21.601 34.3894C20.9362 34.3065 19.0872 34.3875 18.7569 34.5141C18.6261 34.5642 18.5649 34.4601 18.505 34.085C18.4615 33.8125 18.2712 33.1286 18.0823 32.5653L17.7388 31.5411L17.7442 25.0362C17.7472 21.4586 17.7652 18.516 17.7842 18.497C17.8219 18.4594 40.7237 14.9217 41.0522 14.9029C41.2393 14.892 41.2539 15.1006 41.2539 17.7679ZM19.7051 24.5569V28.4691H20.6846H21.6641V24.5569V20.6446H20.6846H19.7051V24.5569ZM50.4159 22.8712C51.5213 23.3852 52.1553 24.4639 52.064 25.6748C51.978 26.8153 51.3746 27.6976 50.3574 28.1705C49.8541 28.4046 49.6794 28.4116 44.4034 28.4116H38.9679L38.6705 28.1327C38.274 27.7608 38.2677 27.183 38.656 26.7955L38.9387 26.513H42.5739H46.209V25.5349V24.5569L42.4351 24.558C38.7251 24.559 38.6513 24.5636 38.0841 24.8274C35.8667 25.8585 35.8582 28.9323 38.0695 30.1133C38.5383 30.3637 38.6304 30.3683 43.8406 30.402C46.9698 30.4222 49.4365 30.3894 49.8718 30.3217C51.3162 30.0972 52.6785 29.1892 53.3898 27.9772C54.1725 26.6437 54.2589 24.8678 53.6088 23.4804C53.2543 22.7241 53.2512 22.7042 53.5004 22.7759C54.659 23.1092 56.016 24.2828 56.5241 25.3911C57.8346 28.2495 56.1275 31.6027 53.031 32.2531C52.234 32.4205 38.3234 32.4314 37.4466 32.2654C34.91 31.7851 33.126 29.3057 33.5162 26.803C33.8059 24.9449 34.9562 23.5171 36.6786 22.878C37.3918 22.6134 37.4082 22.6127 43.6162 22.6079L49.8389 22.603L50.4159 22.8712ZM13.4663 29.1577C15.0199 30.384 16.3339 32.6658 16.5517 34.5157L16.6253 35.142L16.0622 35.39C15.3114 35.7206 14.0845 36.5345 13.3705 37.1755L12.791 37.6958L12.2148 37.1785C11.5038 36.5402 10.6609 35.9785 9.67969 35.4892C9.26772 35.2838 8.92019 35.1071 8.9074 35.0965C8.89461 35.086 8.96386 34.6909 9.06123 34.2184C9.3008 33.0559 9.81267 31.8657 10.4825 30.9131C11.0564 30.0972 12.4817 28.6993 12.7397 28.6993C12.8199 28.6993 13.1469 28.9056 13.4663 29.1577ZM19.7051 31.4033V32.3814H20.6846H21.6641V31.4033V30.4253H20.6846H19.7051V31.4033ZM48.4715 34.6495C49.5907 35.2473 50.0709 36.0546 50.0659 37.3293C50.0621 38.3008 49.9037 38.6951 49.2589 39.3391C48.4117 40.185 48.7325 40.1447 42.5493 40.1813L36.9882 40.2143L36.7011 39.9277C36.3861 39.6131 36.3184 39.0166 36.5618 38.7001C36.8869 38.2773 37.1415 38.2498 40.7278 38.2498H44.25V37.266V36.2822L40.4185 36.3167L36.5869 36.3512L35.9815 36.6862C34.9732 37.244 34.4543 38.1172 34.4562 39.253C34.4582 40.4394 35.1014 41.4335 36.1836 41.9226C36.6822 42.148 36.9176 42.1571 42.3077 42.1595C47.575 42.162 47.9579 42.1483 48.6528 41.934C50.6618 41.3144 52.0859 39.3738 52.0859 37.256C52.0859 36.4605 51.7596 35.3097 51.3852 34.7847C51.2635 34.6142 51.1641 34.4437 51.1641 34.4061C51.1641 34.2966 52.3437 34.3268 53.0124 34.4535C55.5865 34.9409 57.3858 37.4705 56.9432 39.9795C56.6131 41.8506 55.3906 43.2872 53.607 43.8999C53.003 44.1075 52.4954 44.1182 43.2705 44.1182C34.0457 44.1182 33.538 44.1075 32.934 43.8999C29.4687 42.7094 28.4025 38.5204 30.895 35.8887C31.5431 35.2044 32.5524 34.6338 33.418 34.4622C33.7032 34.4057 37.0997 34.3673 40.9658 34.3772C47.982 34.3951 47.996 34.3955 48.4715 34.6495ZM6.47179 36.4561C8.12702 36.7742 9.6419 37.524 10.9011 38.6485L11.568 39.2442L11.0392 40.2716C10.4088 41.4962 10.0491 42.7181 9.90245 44.1337C9.80127 45.1107 9.88504 46.5691 10.089 47.3807L10.1679 47.6947L9.56859 47.4672C7.89723 46.8332 6.09729 45.2935 5.2033 43.7333C3.97398 41.5879 3.64118 39.3378 4.21539 37.0549L4.40691 36.2937H5.01662C5.35184 36.2937 6.00671 36.3667 6.47179 36.4561ZM21.2753 36.7909C21.5175 37.4916 21.6968 39.1412 21.6139 39.906C21.4173 41.7204 20.6475 43.6112 19.5818 44.8969C18.0383 46.7586 15.424 48.0305 13.1401 48.0305H12.2584L12.1216 47.4839C11.5744 45.2964 11.7764 43.1449 12.7023 41.2991C13.7468 39.2169 15.3994 37.6984 17.4731 36.9153C18.5204 36.5198 19.6075 36.3059 20.4429 36.3308C21.122 36.3512 21.1235 36.352 21.2753 36.7909ZM57.041 47.0524V48.0305H43.2705H29.5V47.0524V46.0743H43.2705H57.041V47.0524ZM20.4852 51.0798L19.9994 52.0578H12.7666H5.53378L5.07158 51.1398C4.81737 50.6349 4.60938 50.1948 4.60938 50.1617C4.60938 50.1287 8.29076 50.1017 12.7902 50.1017H20.9709L20.4852 51.0798ZM34.6855 50.1617C34.6855 50.1948 34.4776 50.6349 34.2233 51.1398L33.7611 52.0578H32.6101H31.459V51.0798V50.1017H33.0723C33.9596 50.1017 34.6855 50.1287 34.6855 50.1617ZM41.2539 51.0798V52.0578H38.6611C37.2351 52.0578 36.0684 52.0308 36.0684 51.9978C36.0684 51.9647 36.2764 51.5246 36.5306 51.0197L36.9928 50.1017H39.1233H41.2539V51.0798ZM55.082 51.0838V52.0659L53.9009 52.0331L52.7197 52.0003L52.2249 51.051L51.7301 50.1017H53.4061H55.082V51.0838Z" fill="#BAD8D8"/>
</svg>
