<svg width="59" height="59" viewBox="0 0 59 59" fill="none" xmlns="http://www.w3.org/2000/svg">
<path fill-rule="evenodd" clip-rule="evenodd" d="M13.2495 0.148215C11.8846 0.519784 10.7526 1.45851 10.11 2.75139C9.90363 3.16676 9.725 3.52496 9.71313 3.54743C9.70115 3.5699 9.38999 3.44025 9.02168 3.2593C8.40284 2.9555 8.25072 2.93038 7.02651 2.93038C5.83618 2.93038 5.6367 2.96104 5.06741 3.23153C4.26118 3.61451 3.61952 4.25622 3.23657 5.06252C2.9661 5.63186 2.93544 5.83136 2.93544 7.02179C2.93544 8.2461 2.96057 8.39823 3.26434 9.01713C3.44527 9.38547 3.57492 9.69746 3.55245 9.71014C3.52997 9.72293 3.20672 9.87806 2.83415 10.0547C1.53054 10.6732 0.431941 12.0162 0.118945 13.3738C-0.0632512 14.164 -0.0297159 16.4372 0.175644 17.2261C0.536349 18.6115 1.50703 19.7621 2.87206 20.4224L3.66319 20.8051L3.45011 21.0875C2.79082 21.9618 2.67108 24.2829 3.22804 25.394C3.60188 26.1397 4.30163 26.8468 5.01163 27.1961C5.52849 27.4505 5.73039 27.4788 7.02651 27.4788C8.37218 27.4788 8.50748 27.458 9.08149 27.1619C9.4195 26.9875 9.71209 26.845 9.73168 26.845C9.75128 26.845 9.79772 26.966 9.83483 27.1138C10.0932 28.1435 11.2598 29.4448 12.4151 29.9921L13.1919 30.3601H15.2143H17.2368L18.1151 29.9261C19.1608 29.4094 19.9211 28.6318 20.423 27.5653C20.6094 27.1692 20.7764 26.845 20.7942 26.845C20.8119 26.845 21.0793 26.9871 21.3883 27.1607C21.8877 27.4413 22.0915 27.481 23.2179 27.5169C24.8469 27.5688 25.5719 27.3295 26.4522 26.4491C27.3325 25.5688 27.5718 24.8436 27.5199 23.2146C27.484 22.0881 27.4443 21.8842 27.1638 21.3848C26.9901 21.0757 26.848 20.8083 26.848 20.7906C26.848 20.7729 27.1722 20.6058 27.5683 20.4194C28.6347 19.9174 29.4123 19.1571 29.9289 18.1113L30.3629 17.2329V15.2103V13.1877L29.9949 12.4108C29.4476 11.2554 28.1464 10.0887 27.1169 9.83034C26.969 9.79323 26.848 9.74079 26.848 9.71383C26.848 9.68697 26.9906 9.39435 27.1649 9.06369C27.4617 8.50069 27.4818 8.3708 27.4818 7.02179C27.4818 5.72556 27.4535 5.52364 27.1992 5.00674C26.8512 4.29956 26.1462 3.59998 25.3971 3.2185C24.8867 2.95861 24.6958 2.93038 23.4484 2.93038C22.1655 2.93038 22.021 2.95331 21.451 3.24732C21.113 3.42169 20.8219 3.56426 20.8042 3.56426C20.7864 3.56426 20.6061 3.22738 20.4034 2.8157C19.75 1.48824 18.5956 0.52601 17.23 0.170345C16.3989 -0.0460965 14.012 -0.0593523 13.2495 0.148215ZM17.1011 2.11243C17.6408 2.33798 18.4056 3.05669 18.6988 3.61405C19.0318 4.24666 19.1308 6.62037 18.8576 7.42206C18.6086 8.15298 16.4838 11.6535 16.3216 11.5998C16.2377 11.572 16.1759 11.1844 16.1549 10.5564L16.1216 9.55731H15.2086H14.2957L14.2624 10.5564C14.2441 11.1059 14.1765 11.573 14.1122 11.5943C14.0188 11.6251 12.3327 8.92297 11.6186 7.59804C11.5102 7.39705 11.4633 6.83946 11.4633 5.75403C11.4633 4.33817 11.4882 4.14939 11.7403 3.65611C12.0736 3.00391 12.5756 2.49726 13.1947 2.1885C13.5806 1.99592 13.8941 1.95916 15.1835 1.95536C16.2455 1.95213 16.8326 2.0003 17.1011 2.11243ZM7.87987 4.84296C8.14608 4.91695 8.57524 5.20014 8.93087 5.53644C9.53117 6.10428 9.53186 6.10578 9.58567 6.94423C9.64883 7.92789 9.89314 8.51774 11.017 10.3997C11.9683 11.9927 11.9232 11.9095 11.7981 11.8404C11.7407 11.8087 11.1134 11.4362 10.4041 11.0126C8.52234 9.88865 7.93254 9.64433 6.94895 9.58117C6.11057 9.52735 6.10907 9.52666 5.54128 8.92631C4.76686 8.10746 4.54859 7.24664 4.84465 6.18011C5.16317 5.03313 6.47819 4.45376 7.87987 4.84296ZM24.3178 4.83155C24.7812 4.96029 25.3914 5.53827 25.5733 6.02083C25.7306 6.43815 25.731 7.60393 25.5739 8.02275C25.507 8.20116 25.1846 8.6194 24.8576 8.95224C24.2943 9.52539 24.2319 9.55731 23.675 9.55731C22.7475 9.55731 22.0567 9.82746 20.285 10.8833C19.3763 11.4247 18.619 11.8536 18.6019 11.8363C18.585 11.8189 19.0081 11.0786 19.5425 10.1912C20.5719 8.48144 20.8071 7.89297 20.9265 6.72755C20.9936 6.07097 21.0462 5.95836 21.4879 5.5249C22.2359 4.79064 23.264 4.5387 24.3178 4.83155ZM50.9911 7.83281C46.2755 8.86845 42.4089 10.7587 39.8293 13.2891C37.5566 15.5186 36.386 18.0303 36.2153 21.0429L36.1481 22.2308L37.2313 23.3381C38.6702 24.8088 38.6826 24.8146 40.1387 24.6666C43.9641 24.278 46.8253 22.5156 49.3255 19.0079C50.7816 16.9651 52.2534 13.4544 52.9438 10.3774C53.2908 8.83123 53.3116 8.28943 53.0366 7.95301C52.7508 7.60334 52.1867 7.57015 50.9911 7.83281ZM50.8191 11.0268C49.4338 16.2817 46.7782 20.1563 43.4335 21.8022C42.485 22.2689 41.2111 22.6385 40.1584 22.7525L39.4669 22.8274L42.9219 19.3634L46.3767 15.8993L45.7492 15.2639C45.4041 14.9143 45.0684 14.6284 45.0031 14.6284C44.938 14.6284 43.3503 16.1621 41.4751 18.0368L38.0656 21.4452L38.1556 20.697C38.4528 18.2286 39.4447 16.3096 41.3831 14.4534C43.3467 12.573 45.8948 11.2182 49.38 10.2014C50.1393 9.97993 50.8473 9.79623 50.9532 9.79323C51.1245 9.78839 51.1098 9.92439 50.8191 11.0268ZM7.60272 11.6208C8.68864 12.1817 11.6302 14.0127 11.5986 14.1081C11.5774 14.1724 11.1103 14.24 10.5608 14.2583L9.56182 14.2916V15.2046V16.1176L10.5608 16.1509C11.1888 16.1719 11.5764 16.2338 11.6041 16.3177C11.6578 16.4799 8.1576 18.6049 7.42674 18.8539C6.62512 19.1271 4.25161 19.0281 3.61905 18.6951C3.06175 18.4018 2.3431 17.637 2.11758 17.0973C1.88951 16.5515 1.89447 13.8815 2.12449 13.331C2.46053 12.5268 3.28889 11.7931 4.1615 11.5268C4.69633 11.3638 7.23948 11.4331 7.60272 11.6208ZM26.4235 11.5848C27.165 11.8376 28.0472 12.6563 28.309 13.335C28.473 13.76 28.5181 14.1945 28.5149 15.3199C28.5111 16.5962 28.4803 16.8182 28.245 17.2665C27.9046 17.9149 27.4 18.3855 26.6752 18.731C26.1748 18.9695 25.9287 19.0058 24.8065 19.0067C23.9474 19.0075 23.3402 18.9489 22.9953 18.8317C22.1487 18.5442 18.7865 16.4771 18.8589 16.2884C18.9058 16.1663 19.1723 16.1266 19.9459 16.1266H20.9707V15.2046V14.2826H19.9459C19.2009 14.2826 18.905 14.2409 18.8624 14.1298C18.7921 13.9466 22.3035 11.81 23.0656 11.5722C23.779 11.3496 25.7548 11.357 26.4235 11.5848ZM16.0867 13.5477C17.1993 14.0757 17.4402 15.6467 16.5454 16.5415C15.3519 17.7352 13.3648 16.8989 13.3648 15.2029C13.3648 13.839 14.8268 12.9498 16.0867 13.5477ZM10.8877 20.2814C9.83194 22.0533 9.56182 22.7441 9.56182 23.6716C9.56182 24.2286 9.5299 24.291 8.9568 24.8544C8.62399 25.1814 8.20577 25.5038 8.02738 25.5707C7.60859 25.7278 6.44293 25.7275 6.02564 25.5702C4.54675 25.0125 4.25507 22.8551 5.48135 21.544C5.95914 21.0331 6.03739 20.994 6.724 20.9237C7.8982 20.8034 8.48316 20.57 10.1956 19.5389C11.083 19.0044 11.8232 18.5812 11.8406 18.5982C11.8579 18.6152 11.4291 19.3727 10.8877 20.2814ZM20.2793 19.5538C21.9968 20.5776 22.5129 20.7867 23.6213 20.9078C24.2708 20.9788 24.4291 21.0457 24.8123 21.4107C25.4656 22.033 25.6956 22.5567 25.6956 23.4224C25.6956 24.8887 24.8963 25.6925 23.4378 25.6925C22.5149 25.6925 22.244 25.5842 21.5568 24.9414C21.024 24.4429 20.9928 24.38 20.9144 23.6432C20.7944 22.5153 20.5901 22.0083 19.5575 20.2757C19.0476 19.4199 18.6045 18.6729 18.5727 18.6155C18.503 18.4895 18.3805 18.4222 20.2793 19.5538ZM14.2867 19.9422V20.9672H15.2086H16.1306V19.9422C16.1306 19.1686 16.1702 18.9021 16.2924 18.8552C16.481 18.7828 18.548 22.1453 18.8354 22.9919C18.9526 23.3368 19.0113 23.9441 19.0105 24.8033C19.0095 25.9256 18.9732 26.1717 18.7347 26.6721C18.3893 27.397 17.9187 27.9016 17.2703 28.242C16.8221 28.4774 16.6001 28.5082 15.3239 28.512C14.1987 28.5152 13.7642 28.4701 13.3392 28.3061C12.6605 28.0443 11.8419 27.162 11.5891 26.4204C11.3546 25.7322 11.3443 23.8587 11.5707 23.1062C11.8068 22.3217 13.9412 18.7846 14.1339 18.8586C14.245 18.9013 14.2867 19.1973 14.2867 19.9422ZM17.4402 32.6703L17.1469 32.9636L17.199 36.2719C17.2435 39.0915 17.2873 39.7433 17.4958 40.684C18.3982 44.7541 20.401 48.1723 23.3869 50.7388C25.4949 52.5507 27.6954 53.7398 30.3629 54.5084L31.4 54.8073L31.4577 56.6837C31.5129 58.4829 31.5265 58.5691 31.7874 58.78C32.0472 58.9901 32.3257 59 37.9892 59C42.2763 59 43.9887 58.9629 44.1706 58.866C44.6661 58.602 44.7029 58.4441 44.7067 56.5727L44.7104 54.7793L45.3154 54.6282C51.4244 53.1024 56.5229 48.2024 58.229 42.2173C58.8539 40.0254 58.9995 38.7687 59 35.5695C59.0003 33.0735 58.9244 32.6204 58.4766 32.4486C58.374 32.4093 49.1648 32.377 38.0118 32.377H17.7335L17.4402 32.6703ZM53.2383 35.2007V36.1803H36.1249H19.0116V35.2007V34.221H36.1249H53.2383V35.2007ZM57.0412 36.4121C57.0412 39.0286 56.8695 40.2537 56.2294 42.2033C55.4463 44.5883 54.2412 46.5555 52.4316 48.4033C50.3549 50.5236 48.1529 51.8304 45.286 52.6436C43.2737 53.2144 42.574 53.2649 37.4502 53.2093C32.3171 53.1535 32.1368 53.1334 29.9133 52.3656C27.7513 51.619 25.8031 50.4193 24.0618 48.7621C21.5839 46.4039 19.8843 43.2121 19.3026 39.8244C19.2059 39.2614 19.1268 38.6262 19.1268 38.4126V38.0243H36.1249C50.5627 38.0243 53.123 38.0484 53.123 38.1846C53.123 38.6882 52.4557 40.7832 51.972 41.798C51.2091 43.3987 50.419 44.5055 49.2007 45.68C46.6444 48.1444 43.5494 49.4246 40.1296 49.4319L39.0636 49.4342V50.4316V51.4288L40.4177 51.3539C42.0778 51.262 42.8935 51.1325 44.2112 50.7511C46.9396 49.9617 49.6296 48.2443 51.411 46.1547C53.9749 43.1471 55.1882 39.755 55.1951 35.5752L55.1974 34.221H56.1193H57.0412V36.4121ZM0.719353 41.9132C0.577952 41.938 0.35277 42.0974 0.218744 42.2675C-0.0778867 42.644 -0.0423924 43.0533 0.468472 45.1453C2.29873 52.6411 6.37747 57.6056 11.6101 58.7063C12.6616 58.9276 14.0799 59.0479 14.4726 58.9494C14.871 58.8494 16.796 56.9957 17.0024 56.5132C17.1955 56.062 17.0446 54.285 16.6996 52.9493C15.4279 48.0242 10.4496 44.0814 3.33879 42.3678C1.45171 41.913 1.08432 41.8493 0.719353 41.9132ZM3.28117 44.2951C4.66107 44.6438 6.53524 45.3215 7.77558 45.9205C12.2043 48.0592 14.7341 51.1819 15.15 55.0238L15.2249 55.7153L11.7612 52.2601L8.29739 48.805L7.66195 49.4325C7.31242 49.7777 7.02651 50.1134 7.02651 50.1787C7.02651 50.2438 8.54332 51.8195 10.3973 53.6801L13.7681 57.0632L12.9845 56.9845C9.07942 56.5927 5.6745 53.5917 3.63357 48.743C3.12893 47.5444 2.3998 45.2917 2.23927 44.4358C2.16436 44.0368 2.17785 43.9987 2.37284 44.0563C2.49211 44.0916 2.90087 44.1991 3.28117 44.2951ZM42.8666 56.0899V57.0407H38.084H33.3015V56.0899V55.1391H38.084H42.8666V56.0899Z" fill="#BAD8D8"/>
</svg>
