<svg width="60" height="60" viewBox="0 0 60 60" fill="none" xmlns="http://www.w3.org/2000/svg">
<path fill-rule="evenodd" clip-rule="evenodd" d="M19.615 0.156215C17.6956 0.621822 15.9952 2.17014 15.3529 4.03691C14.837 5.53691 14.9344 7.14841 15.6262 8.55462L15.9985 9.31124L15.5139 10.2753C14.7834 11.7289 14.5016 12.8965 14.4407 14.7214C14.3805 16.5273 14.5693 17.6882 15.1666 19.1843L15.5505 20.1461L15.0904 20.5913C14.3155 21.341 14.1301 21.8143 14.1261 23.0516L14.1227 24.1288L13.3606 24.3205C11.6531 24.7499 9.8495 25.8674 8.71101 27.2013C8.43116 27.5294 7.40896 29.1324 6.43952 30.7638L4.67699 33.7298L3.94823 33.9928C2.41008 34.5477 1.29879 35.5099 0.627726 36.8679C-0.391651 38.9308 -0.0877633 41.3588 1.40162 43.0509L1.87314 43.5869L1.19153 44.2713C0.622929 44.8422 0.465472 45.0943 0.242956 45.7905C-0.00863484 46.5773 -0.0216413 46.7796 0.0155229 49.3081C0.0517492 51.7706 0.0760052 52.0365 0.310949 52.5459C0.595014 53.162 1.14065 53.9256 1.29669 53.9256C1.4015 53.9256 2.33177 52.9605 2.48805 52.6896C2.53964 52.6002 2.45347 52.3028 2.28289 51.9818C1.99648 51.4432 1.98873 51.3652 1.9912 49.0715C1.99342 47.0312 2.02285 46.6516 2.2102 46.2456C2.46062 45.7029 2.84585 45.3173 3.31515 45.1395C3.77988 44.9634 56.2367 44.9634 56.7015 45.1395C57.1708 45.3173 57.556 45.7029 57.8064 46.2456C57.9935 46.6512 58.0232 47.0306 58.0254 49.0519C58.0278 51.1883 58.0069 51.4329 57.7823 51.8969C57.6184 52.2354 57.3707 52.5018 57.0392 52.6961L56.5419 52.9876H38.2925H20.0431V53.9856V54.9837L38.5959 54.9529L57.1487 54.9222L57.8913 54.5196C58.7098 54.0757 59.2906 53.4478 59.6964 52.5678C59.9504 52.0168 59.9624 51.8591 59.9624 49.0596V46.1283L59.5997 45.3628C59.3621 44.8617 59.0363 44.4183 58.656 44.0788L58.0751 43.5602L58.698 42.7338C60.1612 40.7923 60.4029 38.4753 59.3634 36.3545C58.6638 34.9269 57.2518 33.7363 55.7232 33.2852C55.2504 33.1456 55.1849 33.0593 53.5583 30.4351C51.6978 27.4335 50.8799 26.4463 49.5094 25.5481C47.5787 24.2823 46.3926 24.0264 42.4582 24.0264H39.5401L39.4661 22.59C39.4254 21.8001 39.292 20.6788 39.1696 20.0984C39.0473 19.518 38.9539 19.0412 38.9621 19.0388C38.9703 19.0365 39.2007 18.8845 39.4743 18.701C40.32 18.1341 41.0286 16.7819 41.0286 15.7351C41.0286 15.0112 40.1379 12.8314 39.4767 11.9369C38.8334 11.0666 37.3854 10.4578 36.2856 10.5953L35.671 10.6721L35.1214 9.69255C33.5199 6.83899 30.6647 4.78731 27.4877 4.20727L26.667 4.05754L26.2709 3.23912C25.1221 0.865827 22.2237 -0.476711 19.615 0.156215ZM22.4436 2.2922C22.8593 2.43466 23.2467 2.71055 23.7918 3.25249L24.5568 4.01298L23.6917 4.16518C21.4594 4.55809 19.0799 5.74902 17.7644 7.13189C17.5751 7.33098 17.3815 7.49384 17.3345 7.49384C17.2244 7.49384 16.995 6.42826 16.995 5.91751C16.995 5.13122 17.4373 4.03128 18.0094 3.39483C19.1597 2.11538 20.7632 1.71661 22.4436 2.2922ZM25.6705 6.14896C25.6705 6.1832 25.5317 6.76547 25.3619 7.44283C25.1922 8.1202 25.082 8.70306 25.1169 8.738C25.2433 8.8644 26.9007 9.24148 26.9726 9.16022C27.0131 9.11426 27.1927 8.46996 27.3719 7.72834C27.5509 6.98672 27.7149 6.35919 27.7363 6.33387C27.7577 6.30854 28.1721 6.43259 28.6573 6.60964C29.6082 6.95647 29.6452 7.01357 29.3608 7.69422C29.2626 7.92931 29.2231 8.15702 29.2729 8.2004C29.3227 8.24378 29.7417 8.41637 30.2041 8.58404L31.0447 8.8889L31.1732 8.52014L31.3018 8.15127L31.8923 8.73132C32.9269 9.74742 33.4697 10.6976 34.7702 13.7694C36.4736 17.7924 36.7663 18.5668 37.1312 20.0143C37.4231 21.1724 37.4478 21.4548 37.4471 23.616C37.4464 25.6513 37.4118 26.0983 37.1849 27.0002C36.8707 28.2489 36.1478 29.6852 35.4336 30.4795L34.9106 31.0615H30.4599H26.0093L25.2831 30.5742C24.2098 29.854 21.962 27.5406 21.1993 26.3714C20.27 24.9465 17.1861 18.9749 16.8268 17.9049C16.5483 17.0748 16.2834 15.2325 16.4426 15.2325C16.4801 15.2325 16.6403 15.2817 16.7986 15.342C17.0742 15.4467 17.0996 15.4156 17.393 14.6092C17.5616 14.1459 17.6992 13.7124 17.699 13.6459C17.6986 13.5794 17.4742 13.4464 17.2001 13.3502C16.7342 13.1867 16.704 13.1495 16.7342 12.7776C16.752 12.5588 16.8689 12.1484 16.994 11.8657L17.2213 11.3517L18.276 12.0609C18.8561 12.451 19.3723 12.7691 19.4232 12.7677C19.5625 12.7641 20.5289 11.2506 20.4615 11.1415C20.4293 11.0895 19.9272 10.7355 19.3456 10.3549C18.7641 9.97442 18.2874 9.61516 18.2865 9.55677C18.2838 9.40258 19.9458 7.82285 20.3613 7.58471L20.7142 7.38245L21.3895 8.81586C21.7609 9.60426 22.0856 10.2722 22.1112 10.3003C22.1453 10.3377 23.5247 9.74038 23.8927 9.52874C23.9143 9.51631 23.6374 8.87859 23.2772 8.11176C22.9171 7.34481 22.6224 6.66146 22.6224 6.59322C22.6224 6.48465 23.0851 6.32284 23.8533 6.16291C24.2076 6.08904 25.6705 6.07791 25.6705 6.14896ZM37.3612 12.7825C37.821 13.0051 37.9248 13.1405 38.4194 14.1602C39.0473 15.4551 39.127 16.0695 38.7353 16.5942C38.6025 16.7722 38.4442 16.9333 38.3836 16.9521C38.3026 16.9774 36.8725 13.7482 36.4759 12.6444C36.4092 12.459 36.8276 12.5243 37.3612 12.7825ZM31.7669 13.3558C30.0517 13.5901 28.5039 14.6767 27.6739 16.2291L27.4231 16.6981L28.2175 17.0712C28.6543 17.2764 29.0728 17.4479 29.1472 17.4523C29.2216 17.4566 29.4188 17.2279 29.5853 16.9438C30.236 15.8333 31.2823 15.3029 32.6955 15.3671L33.6257 15.4093L33.8689 14.588C34.0028 14.1364 34.1122 13.7041 34.1119 13.6274C34.1116 13.5037 33.894 13.4537 32.7048 13.3046C32.5436 13.2843 32.1215 13.3074 31.7669 13.3558ZM32.9173 16.5642C31.8577 16.9294 30.5393 17.6153 29.8982 18.1344L29.6218 18.3583L30.2448 19.1194L30.8677 19.8806L31.4638 19.4752C32.1751 18.9916 33.0241 18.5997 33.9337 18.3352C34.5178 18.1654 34.5929 18.1101 34.5402 17.8887C34.5072 17.7499 34.4168 17.3064 34.3393 16.9033C34.2618 16.5003 34.1657 16.1709 34.1257 16.1715C34.0857 16.1721 33.5419 16.3488 32.9173 16.5642ZM22.0933 17.665C21.2447 17.9674 20.5305 18.4173 19.9117 19.0393C19.3113 19.6427 18.6713 20.7145 18.8284 20.8535C18.884 20.9026 19.2936 21.0857 19.7389 21.2603C20.3813 21.512 20.5686 21.546 20.6457 21.4243C20.6992 21.34 20.7438 21.2291 20.7448 21.1779C20.7458 21.1268 20.9858 20.8291 21.2783 20.5164C22.0404 19.7016 22.7484 19.4247 23.9525 19.4703L24.9016 19.5063L25.1781 18.5902C25.3302 18.0864 25.4199 17.6395 25.3774 17.5971C25.3351 17.5546 24.711 17.5055 23.9906 17.4878C22.9688 17.4626 22.5518 17.5015 22.0933 17.665ZM27.0774 18.655C26.6582 18.8496 26.2988 19.0243 26.2786 19.0431C26.238 19.0811 28.7035 24.3895 28.8208 24.5167C28.9058 24.6087 30.5945 23.8504 30.5945 23.72C30.5945 23.4924 28.0673 18.2823 27.9611 18.2911C27.8942 18.2966 27.4965 18.4604 27.0774 18.655ZM23.9888 20.6305C23.4184 20.8235 22.8381 21.0392 22.6992 21.1097C22.1562 21.3851 20.7495 22.3314 20.7481 22.422C20.7462 22.5403 21.7892 23.8361 21.9284 23.8883C21.9839 23.9092 22.2023 23.7963 22.4137 23.6375C22.9605 23.2268 24.0867 22.6837 24.9085 22.4344C25.2954 22.3171 25.6215 22.2175 25.6332 22.2133C25.7118 22.1844 25.2364 20.3444 25.143 20.3156C25.0785 20.2956 24.5591 20.4374 23.9888 20.6305ZM17.6697 24.1498C18.8356 26.4183 18.8472 26.5004 17.9669 26.2633C17.3724 26.1032 17.1269 25.8235 16.5287 24.625C16.1752 23.9168 16.0375 23.4961 16.0375 23.1245C16.0375 22.6472 16.2998 22.0293 16.4994 22.0359C16.5463 22.0374 17.0729 22.9887 17.6697 24.1498ZM31.2393 25.2045C30.6846 25.6043 29.5831 25.9977 28.7376 26.0978L28.1325 26.1696V27.1498V28.1302H28.4891C29.6848 28.1302 31.8318 27.3679 32.6795 26.6424L33.0648 26.3128L32.4609 25.5799C32.1289 25.1769 31.8236 24.8515 31.7827 24.8567C31.7418 24.862 31.4972 25.0185 31.2393 25.2045ZM15.0999 26.3173C15.3436 26.8521 16.2851 27.7468 16.8682 27.9977C17.6824 28.348 18.5694 28.4207 19.2811 28.1954L19.8673 28.0099L20.2752 28.5097C20.4994 28.7847 21.203 29.5448 21.8386 30.199L22.9942 31.3885L22.4273 31.4605C22.1154 31.5 18.9452 31.8236 15.3822 32.1795C11.8193 32.5354 8.63351 32.8779 8.30267 32.9407C7.97194 33.0034 7.63124 33.0547 7.54578 33.0547C7.45738 33.0547 7.92715 32.1558 8.63338 30.9735C10.1282 28.4709 11.0155 27.4937 12.4227 26.8002C13.1175 26.4578 14.1853 26.1247 14.8952 26.0289C14.9333 26.0239 15.0254 26.1535 15.0999 26.3173ZM46.0112 26.196C47.2445 26.455 48.429 27.091 49.3667 27.9977C49.974 28.5849 50.5018 29.3053 51.5246 30.9427C52.2693 32.1349 52.837 33.1208 52.7861 33.1334C52.7353 33.1461 50.3692 33.3529 47.5281 33.5929L42.3625 34.0295L40.3873 32.5454C38.7765 31.3352 38.3399 31.0615 38.0204 31.0615C37.805 31.0615 37.6287 31.0392 37.6287 31.0119C37.6287 30.9846 37.8404 30.5697 38.0992 30.0899C38.651 29.0668 39.1016 27.7989 39.2823 26.7603L39.4113 26.0196L42.301 26.0216C44.3857 26.0232 45.4191 26.0717 46.0112 26.196ZM38.5629 33.6968C39.0883 34.0901 39.3576 34.3596 39.2576 34.3922C39.1677 34.4217 36.5619 34.8014 33.4668 35.2362L27.8394 36.0269L18.3032 39.5335L8.76705 43.0401L6.75537 43.0013C4.8321 42.9643 4.7145 42.9482 4.08001 42.6366C2.77282 41.9946 2.06272 40.8539 2.05674 39.3863C2.05193 38.2217 2.37856 37.4788 3.24259 36.689C3.77989 36.1979 4.05691 36.0509 5.01498 35.7488C7.13568 35.0802 8.94641 34.8207 17.6398 33.9393L26.0809 33.0836L31.8928 33.0692L37.7048 33.0547L38.5629 33.6968ZM55.7388 35.3973C58.793 36.8809 58.7125 41.2667 55.6049 42.7011C54.7251 43.1072 51.9917 43.0531 46.187 42.5148C38.4079 41.7933 29.6503 41.0279 29.174 41.0279C28.9175 41.0279 27.4496 41.4583 25.7697 42.026L22.8163 43.0242L18.7894 42.9934L14.7627 42.9625L21.5355 40.4705L28.3084 37.9784L34.8736 37.0461C39.0905 36.4473 42.718 36.0023 45.0147 35.8022C46.9813 35.6308 49.5664 35.3951 50.7593 35.2785C53.6717 34.9937 54.9717 35.0247 55.7388 35.3973ZM10.1792 47.0837C9.26389 47.2445 8.1383 48.2912 7.83372 49.2648C7.69878 49.6962 7.68494 49.7046 7.09923 49.7097C5.59062 49.7227 4.38635 50.706 4.07954 52.1754C3.96816 52.7087 3.97942 52.924 4.14906 53.5058C4.31624 54.0791 4.48236 54.3309 5.1036 54.9521L5.8558 55.7044L5.72415 56.2272C5.35954 57.6754 6.22006 59.2338 7.68763 59.783C8.73081 60.1734 9.80952 60.035 10.7921 59.3846L11.2491 59.0822L11.7208 59.424C13.2827 60.5556 15.6102 59.952 16.4205 58.2053C16.687 57.631 16.7117 56.4943 16.4726 55.8164C16.3788 55.5503 16.3429 55.3326 16.3928 55.3326C16.6305 55.3326 17.4639 54.4579 17.7025 53.9581C18.6798 51.9113 17.054 49.5873 14.6449 49.5873C14.1067 49.5873 14.0921 49.5774 13.9051 49.0875C13.471 47.9505 12.399 47.161 11.175 47.0767C10.7973 47.0508 10.3492 47.0538 10.1792 47.0837ZM11.4206 49.1669C11.8277 49.3372 12.071 49.6515 12.071 50.0075C12.071 50.1181 11.8123 50.4567 11.4961 50.7599C11.1799 51.0631 10.8076 51.534 10.6686 51.8064C10.4485 52.238 10.3921 52.2816 10.2284 52.1462C9.93589 51.9042 9.61442 51.0991 9.61161 50.6016C9.60821 50.0161 9.91128 49.3877 10.2985 49.1772C10.6915 48.9636 10.9289 48.9615 11.4206 49.1669ZM15.4748 51.8444C15.6894 51.9894 15.9016 52.2454 15.9462 52.4129C16.0613 52.8453 15.7966 53.3903 15.3895 53.5589C15.0829 53.686 14.9733 53.6635 14.3814 53.3521C14.0161 53.1599 13.4656 52.9661 13.1579 52.9216C12.385 52.8095 12.3586 52.7752 12.7355 52.3736C13.4708 51.5904 14.7371 51.3457 15.4748 51.8444ZM8.05892 52.4599C8.27499 52.8469 8.63854 53.356 8.86669 53.5912L9.28148 54.0189L8.89459 54.1039C7.89655 54.3232 6.9467 54.0645 6.33226 53.4062C5.66284 52.6889 6.19708 51.6552 7.20145 51.7244C7.63687 51.7544 7.6908 51.8006 8.05892 52.4599ZM13.7042 55.3129C14.3277 55.8176 14.5609 56.2027 14.6208 56.8269C14.6723 57.3621 14.6499 57.4226 14.2878 57.7272C13.9632 58.0004 13.8237 58.0438 13.4364 57.9918C13.1701 57.9561 12.8551 57.8117 12.6955 57.6521C12.448 57.4044 12.4323 57.3334 12.5503 56.995C12.623 56.7864 12.6624 56.2173 12.6377 55.7303L12.5931 54.845L12.947 54.9157C13.1417 54.9547 13.4825 55.1334 13.7042 55.3129ZM10.6642 55.9812C10.6642 56.8678 9.91325 57.8224 9.09541 57.9759C8.11765 58.1593 7.27086 57.1674 7.78201 56.4375C7.89843 56.2712 8.09996 56.1923 8.45613 56.1734C9.00374 56.1443 10.027 55.8763 10.3125 55.6872C10.6023 55.4951 10.6642 55.5469 10.6642 55.9812Z" fill="#BAD8D8"/>
</svg>
