<?xml version="1.0" encoding="utf-8"?><svg viewBox="0 0 48 48" xmlns="http://www.w3.org/2000/svg" xmlns:xlink="http://www.w3.org/1999/xlink"><style>:root>svg{display:none}:root>svg:target{display:block}</style><svg viewBox="0 0 8 5" id="arrow-down" xmlns="http://www.w3.org/2000/svg"><path d="M1 1l3 3 3-3"/></svg><svg viewBox="0 0 20 20" id="search" xmlns="http://www.w3.org/2000/svg"><path d="M9.167 15.833a6.667 6.667 0 100-13.333 6.667 6.667 0 000 13.333zM17.5 17.5l-3.625-3.625"/></svg><svg viewBox="0 0 48 48" id="service-1" xmlns="http://www.w3.org/2000/svg"><g clip-path="url(#ca)"><path d="M13 38H9a1 1 0 010-2h4a1 1 0 010 2zm32.5 0H43a1 1 0 010-2h1.67l1.348-7.184C46 25.14 42.86 22 39 22h-6.566l-3.182 14H35a1 1 0 010 2h-7a1 1 0 01-.976-1.22l3.636-16a1 1 0 01.976-.78H39c4.962 0 9 4.038 9 9l-1.518 8.184A.997.997 0 0145.5 38z"/><path d="M39 42c-2.756 0-5-2.242-5-5s2.244-5 5-5 5 2.242 5 5-2.244 5-5 5zm0-8c-1.654 0-3 1.346-3 3s1.346 3 3 3 3-1.346 3-3-1.346-3-3-3zm-22 8c-2.756 0-5-2.242-5-5s2.244-5 5-5 5 2.242 5 5-2.244 5-5 5zm0-8c-1.654 0-3 1.346-3 3s1.346 3 3 3 3-1.346 3-3-1.346-3-3-3zm-4-14H5a1 1 0 010-2h8a1 1 0 010 2zm0 6H3a1 1 0 010-2h10a1 1 0 010 2zm0 6H1a1 1 0 010-2h12a1 1 0 010 2z"/><path d="M28 38h-7a1 1 0 010-2h6.202l4.544-20H9a1 1 0 010-2h24a1 1 0 01.976 1.22l-5 22A1 1 0 0128 38z"/></g><defs><clipPath id="ca"><path d="M0 0h48v48H0z"/></clipPath></defs></svg><svg viewBox="0 0 48 48" id="service-2" xmlns="http://www.w3.org/2000/svg"><path d="M24 0C12.369 0 2.906 9.463 2.906 21.094V32.53a4.224 4.224 0 004.219 4.219h1.648a4.225 4.225 0 003.977 2.813 4.224 4.224 0 004.219-4.22V23.907a4.224 4.224 0 00-4.219-4.218A4.225 4.225 0 008.773 22.5H7.125c-.493 0-.966.086-1.406.242v-1.648c0-10.08 8.2-18.282 18.281-18.282 10.08 0 18.281 8.202 18.281 18.282v1.648a4.198 4.198 0 00-1.406-.242h-1.648a4.225 4.225 0 00-3.977-2.813 4.224 4.224 0 00-4.219 4.22v11.437a4.224 4.224 0 005.444 4.037 4.226 4.226 0 01-4.038 2.994h-4.46A4.225 4.225 0 0024 39.562a4.224 4.224 0 00-4.219 4.22A4.224 4.224 0 0024 48a4.225 4.225 0 003.977-2.813h4.46a7.04 7.04 0 007.032-7.03V36.75h1.406a4.224 4.224 0 004.219-4.219V21.094C45.094 9.463 35.63 0 24 0zM11.344 23.906c0-.775.63-1.406 1.406-1.406.775 0 1.406.63 1.406 1.406v11.438c0 .775-.63 1.406-1.406 1.406-.775 0-1.406-.63-1.406-1.406V23.906zm-4.219 1.407h1.406v8.625H7.125a1.408 1.408 0 01-1.406-1.407V26.72c0-.776.63-1.407 1.406-1.407zM24 45.188a1.408 1.408 0 010-2.813 1.407 1.407 0 010 2.813zm12.656-9.844c0 .775-.63 1.406-1.406 1.406-.775 0-1.406-.63-1.406-1.406V23.906c0-.775.63-1.406 1.406-1.406.775 0 1.406.63 1.406 1.406v11.438zm5.625-2.813c0 .776-.63 1.407-1.406 1.407h-1.406v-8.626h1.406c.775 0 1.406.631 1.406 1.407v5.812z"/></svg><svg viewBox="0 0 48 48" id="service-3" xmlns="http://www.w3.org/2000/svg"><g clip-path="url(#ea)"><path d="M19.298 6.882C15.104 2.691 6.898 2.205 1.09 2.205A1.09 1.09 0 000 3.295c0 5.808.484 14.014 4.677 18.207 1.77 1.77 4.484 2.561 7.173 2.561 2.923 0 5.82-.935 7.448-2.563 3.123-3.123 3.696-10.924 0-14.618zm-1.541 13.08c-2.332 2.33-8.808 2.728-11.537 0C2.836 16.576 2.25 9.7 2.186 4.39c5.31.063 12.186.65 15.57 4.034 2.73 2.729 2.33 9.206 0 11.536zM46.91 6.516c-5.808 0-14.014.484-18.207 4.677-3.697 3.694-3.124 11.495 0 14.618 1.628 1.626 4.522 2.561 7.445 2.561 2.69 0 5.4-.789 7.175-2.558C47.514 21.62 48 13.414 48 7.606a1.09 1.09 0 00-1.09-1.09zM41.778 24.27c-2.73 2.729-9.207 2.33-11.537 0s-2.728-8.807 0-11.536C33.626 9.349 40.503 8.763 45.812 8.7c-.063 5.311-.65 12.188-4.034 15.57z"/><path d="M39.04 15.949c-.258-.547-.994-.735-1.537-.482-8.358 3.93-12.465 10.782-14.33 17.827-2.309-14.978-8.984-19.544-11.816-21.482-.353-.242-.627-.418-.78-.569a1.09 1.09 0 00-1.54 1.541c.215.214.588.482 1.091.826 3.19 2.182 11.667 7.982 11.667 31.096a1.09 1.09 0 002.18.002c0-9.34 2.508-21.652 14.457-27.266 0-.002.176-.085.176-.085.543-.257.689-.863.432-1.408z"/></g><defs><clipPath id="ea"><path d="M0 0h48v48H0z"/></clipPath></defs></svg><svg viewBox="0 0 48 48" id="service-4" xmlns="http://www.w3.org/2000/svg"><g clip-path="url(#fa)"><path d="M24 48c13.234 0 24-10.766 24-24a23.845 23.845 0 00-1.847-9.246.949.949 0 10-1.752.732 21.945 21.945 0 011.7 8.514c0 12.187-9.914 22.102-22.101 22.102S1.898 36.187 1.898 24C1.898 11.813 11.813 1.898 24 1.898a22.035 22.035 0 017.275 1.226.949.949 0 10.625-1.793A23.938 23.938 0 0024 0C10.766 0 0 10.766 0 24s10.766 24 24 24z"/><path d="M33.41 6.173a.95.95 0 00-1.343 1.342l4.417 4.417a.949.949 0 001.326.015l7.787-7.437a.95.95 0 10-1.311-1.373L37.17 9.934l-3.76-3.761zM24 14.82a4.064 4.064 0 014.059 4.058.949.949 0 101.898 0 5.966 5.966 0 00-5.008-5.88v-1.88a.949.949 0 10-1.898 0v1.88A5.957 5.957 0 0024 24.834a4.058 4.058 0 01.047 8.116H24l-.047.002a4.063 4.063 0 01-4.012-4.058.949.949 0 10-1.898 0 5.966 5.966 0 005.008 5.881v2.107a.949.949 0 101.898 0v-2.107A5.956 5.956 0 0024 22.937a4.06 4.06 0 110-8.117z"/></g><defs><clipPath id="fa"><path d="M0 0h48v48H0z"/></clipPath></defs></svg><svg viewBox="0 0 20 20" id="shopping-cart" xmlns="http://www.w3.org/2000/svg"><g clip-path="url(#ga)" stroke-width="2" stroke-linecap="round" stroke-linejoin="round"><path d="M7.5 18.333a.833.833 0 100-1.666.833.833 0 000 1.666zm9.167 0a.833.833 0 100-1.666.833.833 0 000 1.666zM.833.833h3.334L6.4 11.992a1.667 1.667 0 001.667 1.341h8.1a1.667 1.667 0 001.666-1.341L19.167 5H5"/></g><defs><clipPath id="ga"><path d="M0 0h20v20H0z"/></clipPath></defs></svg></svg>