<svg width="127" height="134" viewBox="0 0 127 134" fill="none" xmlns="http://www.w3.org/2000/svg">
<path fill-rule="evenodd" clip-rule="evenodd" d="M62.0497 0.364289C61.2508 0.786749 60.5811 1.90497 60.5811 2.81642C60.5811 3.75686 61.2504 4.84873 62.09 5.27783C63.0358 5.76113 63.8033 5.76113 64.7491 5.27783C65.5887 4.84873 66.258 3.75686 66.258 2.81642C66.258 1.87597 65.5887 0.784096 64.7491 0.355002C63.8167 -0.121284 62.9628 -0.118441 62.0497 0.364289ZM50.6959 6.05016C49.897 6.47262 49.2273 7.59084 49.2273 8.50229C49.2273 9.94441 50.6259 11.3452 52.0658 11.3452C53.5056 11.3452 54.9042 9.94441 54.9042 8.50229C54.9042 7.56184 54.2349 6.46997 53.3953 6.04087C52.4629 5.56459 51.6089 5.56743 50.6959 6.05016ZM73.4035 6.05016C72.6046 6.47262 71.9349 7.59084 71.9349 8.50229C71.9349 9.94441 73.3335 11.3452 74.7734 11.3452C76.2132 11.3452 77.6118 9.94441 77.6118 8.50229C77.6118 7.56184 76.9425 6.46997 76.1029 6.04087C75.1706 5.56459 74.3166 5.56743 73.4035 6.05016ZM61.6976 11.1858C57.7917 13.9948 53.4575 20.7104 51.2856 27.3189C48.1669 36.8081 48.6324 46.2055 52.6332 54.5175C54.4219 58.2334 56.9013 61.7008 59.6601 64.344C61.5678 66.1716 62.3956 66.6877 63.4196 66.6877C64.1788 66.6877 64.494 66.5696 65.25 66.0024C66.5941 64.9937 68.0122 63.5883 69.6259 61.6652C73.9578 56.503 76.6647 50.1287 77.4099 43.3356C78.5585 32.8651 74.3224 20.2502 67.2492 13.0777C65.3351 11.1365 64.4902 10.5871 63.4196 10.5871C62.7232 10.5871 62.3495 10.7171 61.6976 11.1858ZM34.5249 21.557C33.6544 22.1093 33.3819 22.6233 32.8538 24.7082C31.5403 29.8942 31.4993 35.7169 32.7395 40.9466C34.5143 48.4313 39.1389 55.5284 45.276 60.1855C47.2063 61.6502 51.9357 64.4008 51.6065 63.8671C51.541 63.7612 50.9432 62.859 50.2781 61.8627C44.8033 53.6612 42.5675 43.6211 44.0301 33.8044C44.4036 31.2973 45.2448 27.6919 45.9061 25.7636C46.1716 24.9896 46.3888 24.2525 46.3888 24.1257C46.3888 23.8733 45.6215 23.5297 43.1719 22.6857C40.8194 21.8749 38.5632 21.3783 36.7381 21.2693C35.3459 21.1863 35.0483 21.225 34.5249 21.557ZM88.9656 21.329C85.9035 21.825 80.4503 23.6117 80.4503 24.1191C80.4503 24.2495 80.6675 24.9896 80.933 25.7636C81.5944 27.6919 82.4355 31.2973 82.809 33.8044C84.2733 43.6336 82.0426 53.6507 76.561 61.8627C75.8959 62.859 75.2924 63.7703 75.2201 63.8874C75.1477 64.0047 75.9793 63.6285 77.0682 63.0512C85.4384 58.6141 91.6366 50.6573 94.0039 41.3111C95.3391 36.039 95.3325 30.0271 93.9853 24.7082C93.4555 22.6169 93.1805 22.1006 92.3143 21.5714C91.7288 21.214 90.3097 21.1113 88.9656 21.329ZM24.3435 40.2429C20.4743 41.1462 16.2975 42.8849 15.5833 43.8894C14.8828 44.8748 14.8701 45.7457 15.5277 47.7464C16.3351 50.2032 18.5084 54.478 20.0421 56.626C25.4184 64.1558 33.6682 69.1927 43.0773 70.6902C44.8339 70.9697 51.3185 70.9965 52.1589 70.7277C52.7137 70.5503 52.6963 70.5357 51.3073 70.0126C47.7634 68.6779 43.1943 65.9339 40.0097 63.2278C35.9702 59.7953 32.5851 55.3957 30.2036 50.483C28.5897 47.1535 27.7864 44.7302 26.795 40.201C26.683 39.6891 26.7174 39.6885 24.3435 40.2429ZM100.046 40.1934C99.0454 44.7537 98.2512 47.1501 96.6355 50.483C92.3088 59.4085 84.6873 66.469 75.5679 70.0003C74.0291 70.5962 74.0015 70.6176 74.615 70.7423C75.9123 71.0059 80.0461 71.0857 82.0016 70.8846C90.5046 70.0101 97.9686 66.3697 103.753 60.275C106.136 57.7647 107.806 55.3717 109.397 52.1887C111.766 47.4503 112.254 45.2935 111.271 43.9103C110.593 42.9568 107.026 41.4085 103.347 40.4703C100.342 39.7043 100.157 39.6885 100.046 40.1934ZM23.0677 70.0518C20.9995 73.1537 20.634 74.4504 21.4027 75.9595C22.2024 77.5293 26.3783 80.7545 29.8725 82.5009C39.3979 87.2616 49.7545 85.8045 57.4248 78.6244C58.8048 77.3324 61.313 74.4584 61.0604 74.4584C60.9984 74.4584 60.0967 74.7116 59.0567 75.0211C47.858 78.3532 35.577 76.4975 25.9016 70.0115C24.8853 69.3299 24.0237 68.7725 23.9872 68.7725C23.9507 68.7725 23.537 69.3483 23.0677 70.0518ZM100.887 70.0253C91.2701 76.5783 78.4741 78.4643 67.488 74.9478C66.6554 74.6813 65.9049 74.4622 65.8201 74.4609C65.5314 74.4563 67.9302 77.235 69.4144 78.6244C74.3126 83.2097 80.3447 85.5202 86.6003 85.2073C92.909 84.8918 99.2471 82.2503 103.508 78.161C106.514 75.2749 106.549 74.2175 103.771 70.0518C103.302 69.3483 102.866 68.7788 102.802 68.7864C102.737 68.7941 101.876 69.3515 100.887 70.0253ZM61.8111 82.3327C60.9785 83.1096 59.6828 84.1932 58.9322 84.7403C58.1813 85.2877 57.5638 85.7943 57.5602 85.8663C57.5485 86.0913 60.8228 89.3372 61.6976 89.9679C62.3504 90.4387 62.7222 90.5684 63.4196 90.5684C64.1169 90.5684 64.4887 90.4387 65.1416 89.9679C66.0073 89.3438 69.2874 86.0955 69.2834 85.8663C69.2823 85.7943 68.8158 85.4118 68.247 85.0163C67.6782 84.6207 66.3625 83.5334 65.323 82.5998C64.2838 81.6662 63.409 80.9063 63.3793 80.9111C63.3494 80.916 62.6437 81.5557 61.8111 82.3327Z" fill="#BAD8D8"/>
<path d="M47.0584 115.513C46.623 113.841 45.701 113.005 44.2925 113.005C43.7291 113.005 43.2681 113.146 42.9096 113.429C42.5766 113.712 42.4102 114.098 42.4102 114.587C42.4102 115.127 42.6278 115.488 43.0632 115.668C43.5242 115.822 44.1388 115.899 44.9071 115.899C45.5474 115.899 46.2645 115.771 47.0584 115.513ZM42.7943 95.5985L43.2553 95.5213C42.6663 99.1235 41.565 102.25 39.9516 104.9C38.3638 107.55 36.5071 109.724 34.3814 111.422C32.2558 113.12 30.1686 114.355 28.1198 115.127C26.0966 115.873 24.2783 116.247 22.6649 116.247C20.7185 116.247 19.2715 115.835 18.324 115.012C17.3764 114.162 16.9026 113.017 16.9026 111.577C16.9026 109.75 17.5941 107.614 18.977 105.17C20.3856 102.7 22.4472 100.281 25.1618 97.9142C27.8765 95.5213 31.1802 93.5659 35.0729 92.0478C38.9912 90.5298 43.2937 89.7707 47.9803 89.7707C50.4389 89.7707 52.4493 90.0152 54.0115 90.504C55.5993 90.9672 57.1871 91.8806 58.775 93.2442C60.8494 92.1121 62.911 91.2373 64.9598 90.6198L65.075 91.0058C62.8982 91.7776 60.9262 92.6525 59.1591 93.6302C61.1055 96.023 62.0786 98.6089 62.0786 101.388C62.0786 103.498 61.5408 105.479 60.4652 107.331C59.4152 109.158 57.8146 110.818 55.6633 112.31C53.5121 113.802 50.8743 115.05 47.7498 116.054C47.7498 117.983 47.4681 119.553 46.9047 120.762C46.3413 121.946 45.1504 123.541 43.3321 125.548C40.6687 128.558 39.337 130.797 39.337 132.263C39.337 133.061 39.6955 133.46 40.4126 133.46C41.3345 133.46 42.9224 132.495 45.176 130.565C47.4553 128.61 50.3877 125.908 53.9731 122.46V123.116C51.4377 125.818 48.7999 128.314 46.0596 130.604C43.3193 132.868 41.437 134 40.4126 134C39.1577 134 38.5302 133.19 38.5302 131.569C38.5302 129.536 38.9656 127.761 39.8364 126.243C40.7071 124.724 41.8211 123.258 43.1785 121.843C44.5102 120.479 45.4321 119.411 45.9443 118.639C46.4822 117.868 46.8535 117.07 47.0584 116.247C46.2645 116.401 45.3681 116.478 44.3693 116.478C43.5754 116.478 42.948 116.298 42.487 115.938C42.0516 115.578 41.8339 115.127 41.8339 114.587C41.8339 113.944 42.0644 113.429 42.5254 113.043C43.012 112.632 43.601 112.426 44.2925 112.426C45.8035 112.426 46.9303 113.378 47.673 115.282C50.6182 114.227 53.0255 112.644 54.895 110.535C56.7902 108.399 58.1475 106.212 58.967 103.974C59.7865 101.735 60.1963 99.8954 60.1963 98.4545C60.1963 96.7306 59.6457 95.2512 58.5445 94.0161C56.4701 95.3026 54.6133 96.6534 52.9743 98.0686C51.3609 99.4579 49.7474 101.156 48.134 103.163C46.5462 105.17 44.587 107.897 42.2565 111.345L41.5266 112.349C40.3486 114.098 39.4266 115.449 38.7607 116.401C38.1205 117.327 37.493 118.163 36.8784 118.91C36.2894 119.656 35.5339 120.505 34.6119 121.457C26.5192 129.819 17.7605 134 8.33606 134C5.6214 134 3.54699 133.588 2.11283 132.765C0.704275 131.942 0 130.745 0 129.176C0 128.378 0.217685 127.683 0.653055 127.092C1.08843 126.5 1.65185 126.204 2.34332 126.204C3.39333 126.204 3.91833 126.641 3.91833 127.516C3.91833 127.851 3.77748 128.146 3.49577 128.404C3.21406 128.661 2.90674 128.79 2.57381 128.79C1.83112 128.79 1.42136 128.288 1.34453 127.285C1.16526 127.285 0.985985 127.503 0.806715 127.941C0.627445 128.378 0.53781 128.828 0.53781 129.291C0.53781 130.604 1.20367 131.633 2.53539 132.379C3.89272 133.099 5.77506 133.46 8.1824 133.46C11.4093 133.46 14.3288 132.958 16.941 131.954C19.5788 130.925 21.9862 129.549 24.163 127.825C26.3655 126.075 28.3631 124.197 30.1558 122.19C31.9485 120.183 34.2406 117.456 37.0321 114.008L38.1461 112.657C41.4754 108.566 44.5486 105.028 47.3657 102.044C50.2084 99.0334 53.7682 96.2031 58.0451 93.553C56.867 92.3952 55.5225 91.5718 54.0115 91.0829C52.5261 90.5684 50.4901 90.3111 47.9035 90.3111C43.3961 90.3111 39.2217 91.0572 35.3802 92.5495C31.5643 94.0419 28.3503 95.9201 25.7381 98.1843C23.1514 100.449 21.1539 102.79 19.7453 105.209C18.3368 107.627 17.6325 109.673 17.6325 111.345C17.6325 112.632 18.0679 113.674 18.9386 114.471C19.8093 115.269 20.9618 115.668 22.3959 115.668C24.2655 115.668 26.2374 115.217 28.3119 114.317C30.4119 113.416 32.4607 112.078 34.4583 110.303C36.4558 108.528 38.1973 106.379 39.6827 103.858C41.1937 101.31 42.2309 98.5574 42.7943 95.5985Z" fill="#BAD8D8"/>
<path d="M56.0091 124.197C58.1347 124.197 59.9274 123.927 61.3872 123.387C62.8469 122.846 63.9482 122.203 64.6909 121.457C65.4592 120.711 65.8433 120.106 65.8433 119.643C65.8433 118.897 65.4079 118.524 64.5372 118.524C63.3848 118.524 62.0402 119.038 60.5036 120.067C58.967 121.071 57.4688 122.447 56.0091 124.197ZM69.6464 122.46V123.116C66.7781 125.998 64.1531 128.198 61.7713 129.716C59.3896 131.208 56.9823 131.954 54.5493 131.954C52.3981 131.954 51.3224 130.719 51.3224 128.249C51.3224 126.191 52.0907 124.39 53.6273 122.846C55.1896 121.277 57.0079 120.08 59.0823 119.257C61.1823 118.408 62.8854 117.983 64.1915 117.983C64.9342 117.983 65.5104 118.163 65.9201 118.524C66.3555 118.858 66.5732 119.308 66.5732 119.874C66.5732 120.749 66.0994 121.56 65.1518 122.306C64.2043 123.026 62.8854 123.631 61.1951 124.12C59.5048 124.583 57.5201 124.853 55.2408 124.93C53.2944 127.143 52.3212 128.828 52.3212 129.986C52.3212 130.398 52.5389 130.745 52.9743 131.028C53.384 131.286 53.9091 131.414 54.5493 131.414C58.6725 131.414 63.7049 128.43 69.6464 122.46Z" fill="#BAD8D8"/>
<path d="M92.8491 99.9597L94.7698 97.8756H97.7278L73.5263 125.085C70.6324 128.275 69.1854 130.141 69.1854 130.681C69.1854 131.17 69.4415 131.414 69.9537 131.414C70.8501 131.414 71.8745 131.041 73.0269 130.295C74.1794 129.523 75.7288 128.249 77.6751 126.474C79.6471 124.699 81.0941 123.412 82.016 122.615V123.271C78.5331 126.487 75.9849 128.738 74.3714 130.025C72.758 131.311 71.2854 131.954 69.9537 131.954C69.4927 131.954 69.1086 131.787 68.8013 131.453C68.4683 131.093 68.3019 130.681 68.3019 130.218C68.3019 128.906 68.9421 127.375 70.2226 125.625C71.5031 123.875 73.2318 121.83 75.4087 119.488C75.5623 119.283 76.0233 118.742 76.7916 117.868C77.5599 116.967 78.3026 116.079 79.0197 115.204C77.2526 116.542 73.8464 119.463 68.8013 123.965V123.348L79.7111 113.854C81.0429 112.722 85.4222 108.09 92.8491 99.9597Z" fill="#BAD8D8"/>
<path d="M92.2728 118.524C90.7362 118.524 89.0204 119.283 87.1252 120.801C85.2557 122.319 83.6167 124.043 82.2081 125.972C80.8252 127.902 80.1337 129.266 80.1337 130.063C80.1337 130.449 80.2617 130.771 80.5178 131.028C80.7739 131.286 81.0941 131.414 81.4782 131.414C82.5282 131.414 84.0392 130.681 86.0112 129.214C87.9832 127.748 89.7631 126.088 91.3509 124.236C92.9387 122.383 93.7326 120.929 93.7326 119.874C93.7326 118.974 93.246 118.524 92.2728 118.524ZM102.414 123.271L100.455 124.93C97.382 127.503 95.1027 129.317 93.6174 130.372C92.1576 131.427 90.8643 131.954 89.7374 131.954C88.9948 131.954 88.6234 131.53 88.6234 130.681C88.6234 129.78 88.9691 128.52 89.6606 126.899C85.9984 130.269 83.2965 131.954 81.5551 131.954C80.7868 131.954 80.1593 131.659 79.6727 131.067C79.1861 130.449 78.9428 129.562 78.9428 128.404C78.9428 127.092 79.327 125.805 80.0953 124.544C80.8636 123.258 81.888 122.126 83.1685 121.148C84.4746 120.17 85.9216 119.398 87.5094 118.832C89.1228 118.266 90.685 117.983 92.196 117.983C92.9387 117.983 93.4765 118.125 93.8094 118.408C94.168 118.665 94.3601 119.103 94.3857 119.72C94.3601 119.849 94.3344 119.977 94.3088 120.106C94.3088 120.209 94.2832 120.363 94.232 120.569C94.2064 120.775 94.1808 120.942 94.1552 121.071L96.5753 118.215L99.8022 117.983L98.8034 119.218C97.9839 120.196 97.318 121.007 96.8058 121.65C96.2936 122.267 95.8582 122.782 95.4997 123.194C91.5045 127.542 89.507 130.089 89.507 130.835C89.507 131.221 89.6862 131.414 90.0448 131.414C90.5314 131.414 91.2612 131.131 92.2344 130.565C93.2076 129.973 94.296 129.201 95.4997 128.249C96.729 127.297 98.1247 126.178 99.6869 124.892C101.249 123.579 102.158 122.82 102.414 122.615V123.271Z" fill="#BAD8D8"/>
<path d="M101.454 124.043V123.425C103.503 121.624 105.347 120.273 106.986 119.373C108.625 118.446 110.289 117.983 111.98 117.983C113.388 117.983 114.093 118.588 114.093 119.797C114.093 120.209 113.99 120.942 113.785 121.997C115.143 120.633 116.321 119.63 117.319 118.987C118.344 118.318 119.535 117.983 120.892 117.983C121.532 117.983 122.083 118.163 122.544 118.524C123.005 118.884 123.235 119.36 123.235 119.952C123.235 121.212 122.685 121.868 121.583 121.92C120.79 121.92 120.393 121.521 120.393 120.724C120.393 120.415 120.495 120.17 120.7 119.99C120.905 119.81 121.148 119.72 121.43 119.72C121.84 119.72 122.211 119.952 122.544 120.415C122.723 119.772 122.646 119.296 122.313 118.987C121.98 118.678 121.481 118.524 120.815 118.524C119.97 118.524 119.061 118.845 118.088 119.488C117.14 120.132 115.975 121.238 114.592 122.808C112.927 124.66 111.685 126.165 110.866 127.323C110.046 128.455 109.636 129.369 109.636 130.063C109.636 130.964 110.213 131.414 111.365 131.414C113.311 131.414 115.604 130.617 118.241 129.021C120.879 127.4 123.799 125.213 127 122.46V123.116C125.156 124.866 123.248 126.423 121.276 127.786C119.33 129.124 117.499 130.153 115.783 130.874C114.067 131.594 112.569 131.954 111.288 131.954C109.7 131.954 108.907 131.273 108.907 129.909C108.907 129.086 109.175 127.954 109.713 126.513L108.599 127.516C108.189 127.902 107.549 128.494 106.678 129.291C105.808 130.089 104.911 130.732 103.989 131.221C103.067 131.71 102.056 131.954 100.955 131.954C99.2388 131.954 98.3808 131.247 98.3808 129.832C98.3808 128.417 99.0595 127.709 100.417 127.709C100.852 127.709 101.198 127.825 101.454 128.056C101.71 128.288 101.838 128.584 101.838 128.944C101.838 129.227 101.71 129.497 101.454 129.755C101.198 130.012 100.903 130.141 100.57 130.141C99.6997 130.141 99.226 129.716 99.1491 128.867C98.7138 130.565 99.3412 131.414 101.031 131.414C101.902 131.414 102.696 131.234 103.413 130.874C104.13 130.514 104.809 130.051 105.449 129.484C106.115 128.918 106.768 128.249 107.408 127.478C108.074 126.68 108.471 126.204 108.599 126.05C110.699 123.554 112.018 121.971 112.556 121.302C113.119 120.633 113.401 120.055 113.401 119.566C113.401 118.871 112.953 118.524 112.057 118.524C110.366 118.524 108.702 119 107.063 119.952C105.449 120.904 103.58 122.267 101.454 124.043Z" fill="#BAD8D8"/>
</svg>
